<svg aria-hidden="true"  version="1.1" xmlns="http://www.w3.org/2000/svg" xmlns:xlink="http://www.w3.org/1999/xlink">
<defs>
<symbol id="icon-meetup" viewBox="0 0 32 32">
<title>meetup</title>
<path d="M31.971 26.984c-0.405-2.575-5.165-0.592-5.461-3.412-0.417-3.997 5.533-12.612 5.063-15.963-0.417-3.007-2.455-3.64-4.22-3.675-1.712-0.027-2.164 0.243-2.744 0.58-0.337 0.195-0.816 0.58-1.483-0.055-0.445-0.424-0.743-0.715-1.207-1.092-0.243-0.189-0.621-0.432-1.26-0.527-0.635-0.095-1.464 0-1.989 0.223-0.527 0.229-0.936 0.621-1.368 0.999-0.431 0.377-1.529 1.597-2.548 1.145-0.447-0.193-1.944-0.941-3.029-1.407-2.084-0.903-5.096 0.56-6.181 2.488-1.617 2.865-4.8 14.137-5.285 15.62-1.079 3.336 1.376 6.053 4.679 5.899 1.403-0.068 2.333-0.573 3.216-2.184 0.512-0.924 5.305-13.449 5.664-14.057 0.263-0.431 1.125-1.004 1.853-0.633 0.735 0.377 0.883 1.159 0.775 1.895-0.181 1.193-3.559 8.839-3.695 9.7-0.216 1.471 0.479 2.285 2.009 2.365 1.045 0.055 2.089-0.316 2.912-1.88 0.465-0.869 5.799-11.555 6.269-12.269 0.52-0.781 0.937-1.039 1.471-1.011 0.412 0.020 1.065 0.128 0.904 1.355-0.163 1.207-4.457 9.040-4.901 10.961-0.608 2.569 0.803 5.165 3.121 6.304 1.483 0.728 7.96 1.968 7.436-1.369z"></path>
</symbol>
<symbol id="icon-twitter" viewBox="0 0 32 32">
<title>twitter</title>
<path d="M32 7.075c-1.175 0.525-2.444 0.875-3.769 1.031 1.356-0.813 2.394-2.1 2.887-3.631-1.269 0.75-2.675 1.3-4.169 1.594-1.2-1.275-2.906-2.069-4.794-2.069-3.625 0-6.563 2.938-6.563 6.563 0 0.512 0.056 1.012 0.169 1.494-5.456-0.275-10.294-2.888-13.531-6.862-0.563 0.969-0.887 2.1-0.887 3.3 0 2.275 1.156 4.287 2.919 5.463-1.075-0.031-2.087-0.331-2.975-0.819 0 0.025 0 0.056 0 0.081 0 3.181 2.263 5.838 5.269 6.437-0.55 0.15-1.131 0.231-1.731 0.231-0.425 0-0.831-0.044-1.237-0.119 0.838 2.606 3.263 4.506 6.131 4.563-2.25 1.762-5.075 2.813-8.156 2.813-0.531 0-1.050-0.031-1.569-0.094 2.913 1.869 6.362 2.95 10.069 2.95 12.075 0 18.681-10.006 18.681-18.681 0-0.287-0.006-0.569-0.019-0.85 1.281-0.919 2.394-2.075 3.275-3.394z"></path>
</symbol>
<symbol id="icon-web" viewBox="0 0 32 32">
<title>web</title>
<path d="M16 0c-8.837 0-16 7.163-16 16s7.163 16 16 16 16-7.163 16-16-7.163-16-16-16zM16 30c-1.967 0-3.84-0.407-5.538-1.139l7.286-8.197c0.163-0.183 0.253-0.419 0.253-0.664v-3c0-0.552-0.448-1-1-1-3.531 0-7.256-3.671-7.293-3.707-0.188-0.188-0.442-0.293-0.707-0.293h-4c-0.552 0-1 0.448-1 1v6c0 0.379 0.214 0.725 0.553 0.894l3.447 1.724v5.871c-3.627-2.53-6-6.732-6-11.489 0-2.147 0.484-4.181 1.348-6h3.652c0.265 0 0.52-0.105 0.707-0.293l4-4c0.188-0.188 0.293-0.442 0.293-0.707v-2.419c1.268-0.377 2.61-0.581 4-0.581 2.2 0 4.281 0.508 6.134 1.412-0.13 0.109-0.256 0.224-0.376 0.345-1.133 1.133-1.757 2.64-1.757 4.243s0.624 3.109 1.757 4.243c1.139 1.139 2.663 1.758 4.239 1.758 0.099 0 0.198-0.002 0.297-0.007 0.432 1.619 1.211 5.833-0.263 11.635-0.014 0.055-0.022 0.109-0.026 0.163-2.541 2.596-6.084 4.208-10.004 4.208z"></path>
</symbol>
</defs>
</svg>
