<?xml version="1.0" standalone="no"?>
<!DOCTYPE svg PUBLIC "-//W3C//DTD SVG 20010904//EN"
 "http://www.w3.org/TR/2001/REC-SVG-20010904/DTD/svg10.dtd">
<svg version="1.0" xmlns="http://www.w3.org/2000/svg"
 width="350.000000pt" height="350.000000pt" viewBox="0 0 350.000000 350.000000"
 preserveAspectRatio="xMidYMid meet">
<metadata>
Created by potrace 1.11, written by Peter Selinger 2001-2013
</metadata>
<g transform="translate(0.000000,350.000000) scale(0.100000,-0.100000)"
fill="#000000" stroke="none">
<path d="M1430 3037 c-49 -16 -123 -93 -138 -143 -37 -124 10 -238 119 -295
34 -17 62 -23 119 -23 l74 -1 273 -520 c149 -286 270 -521 268 -523 -9 -10
-987 33 -990 43 -34 126 -106 196 -217 211 -125 17 -249 -83 -265 -214 -20
-173 174 -308 339 -234 52 23 111 86 128 136 8 26 17 36 33 36 12 0 237 -7
500 -17 315 -11 477 -21 477 -28 0 -9 -132 -326 -309 -744 l-57 -133 -84 -2
c-96 -2 -142 -20 -197 -78 -123 -128 -84 -344 77 -432 140 -76 307 -19 376
129 49 104 21 229 -70 313 l-54 49 179 427 c98 236 180 430 182 433 4 3 377
-701 377 -711 0 -2 -15 -27 -34 -55 -65 -96 -57 -194 20 -268 102 -98 252 -74
310 50 46 100 21 201 -65 262 -37 26 -51 30 -111 30 l-68 0 -189 365 c-105
201 -189 367 -187 368 3 5 688 -17 740 -24 39 -5 42 -7 48 -43 19 -124 189
-208 313 -156 100 42 147 111 147 215 0 79 -24 131 -85 183 -124 106 -330 46
-371 -109 l-12 -45 -41 5 c-22 3 -199 11 -392 17 -240 9 -353 16 -352 23 0 6
91 222 202 481 l203 470 59 6 c75 7 102 18 142 61 40 41 53 76 53 137 0 68
-35 129 -95 166 -64 40 -151 42 -206 5 -110 -73 -127 -229 -34 -322 l36 -36
-203 -465 c-111 -256 -206 -464 -209 -461 -4 2 -116 214 -250 471 -133 258
-254 489 -268 514 l-25 46 40 46 c90 102 86 226 -11 322 -70 71 -152 91 -245
62z"/>
</g>
</svg>
